<svg width="168" height="18" viewBox="0 0 168 18" fill="none" xmlns="http://www.w3.org/2000/svg"><path fill-rule="evenodd" clip-rule="evenodd" d="M3.50384 0.689934C3.50384 0.434965 3.29743 0.228271 3.04281 0.228271H0.461032C0.206411 0.228271 0 0.434964 0 0.689934V3.73691V7.24554V10.7542V13.8012C0 14.0561 0.20641 14.2628 0.461032 14.2628H3.04281C3.29743 14.2628 3.50384 14.0561 3.50384 13.8012V10.7542V7.24554V3.73691V0.689934ZM7.00773 17.7715L10.0505 17.7714C10.3051 17.7714 10.5115 17.5647 10.5115 17.3098V14.2628H13.5543C13.8089 14.2628 14.0154 14.0561 14.0154 13.8012V10.7542V7.24554V3.73691V0.689934C14.0154 0.434965 13.8089 0.228271 13.5543 0.228271H10.9726C10.718 0.228271 10.5115 0.434964 10.5115 0.689934V3.73691V7.24554V10.7542V14.2628H7.00778L3.96492 14.263C3.7103 14.263 3.50389 14.4697 3.50389 14.7247V17.31C3.50389 17.5649 3.7103 17.7716 3.96492 17.7716L7.00773 17.7715ZM105.115 0.689934C105.115 0.434965 104.909 0.228271 104.654 0.228271H102.072C101.818 0.228271 101.611 0.434964 101.611 0.689934V3.73691V7.24554V10.7542V14.2628V17.3098C101.611 17.5647 101.818 17.7714 102.072 17.7714H104.654C104.909 17.7714 105.115 17.5647 105.115 17.3098V14.2628V11.2158C105.115 10.9609 105.322 10.7542 105.576 10.7542H108.619H111.662C111.916 10.7542 112.123 10.9609 112.123 11.2158V14.2628V17.3098C112.123 17.5647 112.33 17.7714 112.584 17.7714H115.166C115.42 17.7714 115.627 17.5647 115.627 17.3098V14.2628V10.7542V7.24554V3.73691V0.689934C115.627 0.434965 115.42 0.228271 115.166 0.228271H112.584C112.33 0.228271 112.123 0.434964 112.123 0.689934V3.73691V6.78388C112.123 7.03885 111.916 7.24554 111.662 7.24554H108.619H105.576C105.322 7.24554 105.115 7.03885 105.115 6.78388V3.73691V0.689934ZM70.0769 17.3098C70.0769 17.5647 69.8704 17.7714 69.6158 17.7714H67.034C66.7795 17.7714 66.573 17.5647 66.573 17.3098V14.2628V10.7542V7.24554V4.19857C66.573 3.9436 66.7795 3.73691 67.034 3.73691H70.0769V6.78388C70.0769 7.03885 70.2833 7.24554 70.5379 7.24554H73.5807H76.6235C76.8781 7.24554 77.0845 7.03885 77.0845 6.78388V3.73691H80.1273C80.3819 3.73691 80.5884 3.9436 80.5884 4.19857V7.24554V10.7542V14.2628V17.3098C80.5884 17.5647 80.3819 17.7714 80.1273 17.7714H77.5456C77.291 17.7714 77.0845 17.5647 77.0845 17.3098V14.2628V11.2158C77.0845 10.9609 76.8781 10.7542 76.6235 10.7542H73.5807H70.5379C70.2833 10.7542 70.0769 10.9609 70.0769 11.2158V14.2628V17.3098ZM77.0845 3.73691H73.5807H70.0769V0.689935C70.0769 0.434965 70.2833 0.228271 70.5379 0.228271H73.5807H76.6235C76.8781 0.228271 77.0845 0.434964 77.0845 0.689934V3.73691ZM17.5192 10.7542V14.2628V17.3098C17.5192 17.5647 17.7257 17.7714 17.9802 17.7714H20.562C20.8166 17.7714 21.0231 17.5647 21.0231 17.3098V14.2628V10.7542V7.24554V4.19857C21.0231 3.9436 21.2295 3.73691 21.4841 3.73691H24.5269V6.78388C24.5269 7.03885 24.7333 7.24554 24.9879 7.24554H28.0307V10.7542V14.2628V17.3098C28.0307 17.5647 28.2372 17.7714 28.4918 17.7714H31.0736C31.3281 17.7714 31.5346 17.5647 31.5346 17.3098V14.2628V10.7542V7.70721C31.5346 7.45224 31.3281 7.24554 31.0736 7.24554H28.0307V4.19857C28.0307 3.9436 27.8243 3.73691 27.5697 3.73691H24.5269V0.689934C24.5269 0.434965 24.3204 0.228271 24.0659 0.228271H21.0231H17.9802C17.7257 0.228271 17.5192 0.434964 17.5192 0.689934V3.73691V7.24554V10.7542ZM38.5423 17.3098C38.5423 17.5647 38.7487 17.7714 39.0033 17.7714H42.0461H45.0889C45.3435 17.7714 45.55 17.5647 45.55 17.3098V14.7245C45.55 14.4695 45.3435 14.2628 45.0889 14.2628H42.0461H38.5423V10.7542V7.24554V3.73691V0.689934C38.5423 0.434965 38.3358 0.228271 38.0812 0.228271H35.4995C35.2449 0.228271 35.0384 0.434964 35.0384 0.689934V3.73691V7.24554V10.7542V13.8012C35.0384 14.0561 35.2449 14.2628 35.4995 14.2628H38.5423V17.3098ZM56.0615 17.7714H53.0187C52.7641 17.7714 52.5576 17.5647 52.5576 17.3098V14.2628H56.0615H59.5653H62.6081C62.8627 14.2628 63.0692 14.4695 63.0692 14.7245V17.3098C63.0692 17.5647 62.8627 17.7714 62.6081 17.7714H59.5653H56.0615ZM52.5576 3.73691V6.78388C52.5576 7.03885 52.7641 7.24554 53.0187 7.24554H56.0615H59.5653H62.6081C62.8627 7.24554 63.0692 7.45224 63.0692 7.70721V10.2925C63.0692 10.5474 62.8627 10.7542 62.6081 10.7542H59.5653H56.0615H53.0187C52.7641 10.7542 52.5576 10.9609 52.5576 11.2158V14.2628H49.5148C49.2602 14.2628 49.0538 14.0561 49.0538 13.8012V10.7542V7.24554V4.19857C49.0538 3.9436 49.2602 3.73691 49.5148 3.73691H52.5576ZM56.0615 3.73691H52.5576V0.689934C52.5576 0.434965 52.7641 0.228271 53.0187 0.228271H56.0615H59.5653H62.6081C62.8627 0.228271 63.0692 0.434964 63.0692 0.689934V3.27524C63.0692 3.53021 62.8627 3.73691 62.6081 3.73691H59.5653H56.0615ZM87.5961 17.7714H91.0999H94.1427C94.3972 17.7714 94.6037 17.5647 94.6037 17.3098V14.2628H97.6466C97.901 14.2628 98.1076 14.0561 98.1076 13.8012V11.2158C98.1076 10.9609 97.901 10.7542 97.6466 10.7542H94.6037V7.70721C94.6037 7.45224 94.3972 7.24554 94.1427 7.24554H91.0999H87.5961V3.73691H91.0999H94.6037H97.6466C97.901 3.73691 98.1076 3.53021 98.1076 3.27524V0.689934C98.1076 0.434964 97.901 0.228271 97.6466 0.228271H94.6037H91.0999H88.0571C87.8025 0.228271 87.5961 0.434965 87.5961 0.689934V3.73691H84.5533C84.2987 3.73691 84.0922 3.9436 84.0922 4.19857V6.78388C84.0922 7.03885 84.2987 7.24554 84.5533 7.24554H87.5961V10.2925C87.5961 10.5474 87.8025 10.7542 88.0571 10.7542H91.0999H94.6037V14.2628H91.0999H87.5961H84.5533C84.2987 14.2628 84.0922 14.4695 84.0922 14.7245V17.3098C84.0922 17.5647 84.2987 17.7714 84.5533 17.7714H87.5961Z" fill="white"></path><path fill-rule="evenodd" clip-rule="evenodd" d="M166.156 0.228394H120.975C119.957 0.228394 119.131 1.05517 119.131 2.07504V15.9249C119.131 16.9448 119.957 17.7716 120.975 17.7716H166.156C167.175 17.7716 168 16.9448 168 15.9249V2.07504C168 1.05517 167.175 0.228394 166.156 0.228394ZM159.034 14.0777C156.814 14.0777 154.968 13.2774 154.045 11.8561C153.852 11.6491 153.701 11.4145 153.59 11.1661L156.677 10.5728C156.746 10.7107 156.828 10.8211 156.953 10.9453C157.407 11.4973 158.207 11.8146 159.144 11.8146C160.177 11.8146 160.729 11.4973 160.729 11.0005C160.729 10.5865 160.246 10.4347 159.695 10.3381L158.082 10.0622C156.222 9.70336 155.244 8.77883 155.244 7.41271C155.244 5.37041 157.284 3.92149 160.274 3.92149C162.534 3.92149 164.036 4.87365 164.822 6.06038C164.931 6.18457 165.028 6.35016 165.096 6.50196L162.148 7.13672L162.138 7.12615C162.046 7.02013 161.965 6.92664 161.858 6.83314C161.459 6.39156 160.88 6.18457 160.108 6.18457C159.171 6.18457 158.578 6.50196 158.578 6.90214C158.578 7.27472 159.02 7.41271 159.558 7.4955L161.004 7.71629C162.492 7.93708 164.312 8.59944 164.312 10.5865C164.312 12.8082 162.148 14.0777 159.034 14.0777ZM148.005 6.64022L145.952 13.8297H149.245L151.313 6.64022H154.757L155.461 4.17015H145.277L144.574 6.64022H148.005ZM132.962 13.8297L135.718 4.17015H144.579L143.918 6.48842H138.35L137.95 7.90975H142.029L141.396 10.1176H137.317L136.256 13.8297H132.962ZM124.792 4.17015L122.036 13.8297H124.971L126.79 7.48197L129.739 13.8297H132.316L135.086 4.17015H132.136L130.676 9.24828L128.499 4.17015H124.792Z" fill="#CC91FF"></path></svg>